<svg id="Layer_1" enable-background="new 0 0 512 512" height="300" viewBox="0 0 512 512" width="300" xmlns="http://www.w3.org/2000/svg" version="1.1" xmlns:xlink="http://www.w3.org/1999/xlink" xmlns:svgjs="http://svgjs.dev/svgjs"><g width="100%" height="100%" transform="matrix(1,0,0,1,0,0)"><g clip-rule="evenodd" fill-rule="evenodd"><path d="m256-.002c141.378 0 256.001 114.623 256.001 256.006 0 141.373-114.624 255.997-256.001 255.997-141.383 0-256.001-114.623-256.001-255.997 0-141.382 114.618-256.006 256.001-256.006z" fill="url(#SvgjsLinearGradient1083)" fill-opacity="1" data-original-color="#f44336ff" stroke="none" stroke-opacity="1"/><path d="m359.627 345.284-43.372-25.038c-8.428-4.865-19.303-1.967-24.166 6.469l-1.712 2.969c-4.334 7.518-11.001 12.308-19.499 14.049-8.464 1.734-16.538-.081-23.449-5.266-14.186-10.643-27.587-22.394-40.125-34.931-12.535-12.536-24.286-25.936-34.925-40.12-5.185-6.913-7.006-14.987-5.272-23.454 1.74-8.498 6.542-15.155 14.055-19.491l2.966-1.712c4.114-2.374 6.994-6.171 8.224-10.755 1.225-4.563.616-9.316-1.747-13.409l-25.042-43.372c-4.447-7.702-13.622-10.758-21.877-7.59l-.539.207c-8.508 3.265-31.958 11.831-38.26 18.133-18.636 18.636-10.662 52.352-2.348 73.806 14.561 37.574 42.181 73.739 70.487 102.041 28.302 28.299 64.465 55.928 102.035 70.488 13.036 5.052 27.704 9.039 41.777 9.039 11.777 0 23.5-2.851 32.036-11.387 6.007-6.007 14.918-30.192 18.183-38.405l.21-.529c3.259-8.199-.022-17.345-7.64-21.742zm-13.359-170.139c4.101 1.469 6.836 5.36 6.836 9.714v49.386h1.922c5.695 0 10.319 4.624 10.319 10.319 0 5.701-4.618 10.319-10.319 10.319h-1.922v11.423c0 5.701-4.624 10.316-10.319 10.316-5.698 0-10.316-4.615-10.316-10.316v-11.423h-38.821c-3.991 0-7.627-2.303-9.33-5.908-1.704-3.611-1.174-7.879 1.36-10.961l49.136-59.714c2.766-3.361 7.353-4.624 11.454-3.155zm-13.799 59.1h-16.963l16.963-20.611zm-69.935-20.374c1.895-6.945.782-12.117-3.328-15.369-4.779-3.778-12.737-4.447-18.122-1.515-3.876 2.111-5.515 5.671-5.02 10.888.551 5.674-3.605 10.717-9.278 11.259-5.677.551-10.711-3.611-11.259-9.279-1.305-13.559 4.411-24.857 15.682-30.996 12.707-6.912 29.487-5.494 40.804 3.465 10.727 8.484 14.529 21.97 10.428 36.983-2.793 10.231-12.455 17.763-22.673 25.745-4.363 3.401-8.999 7.018-13.203 10.934h29.983c5.698 0 10.316 4.624 10.316 10.319 0 5.701-4.618 10.316-10.316 10.316h-50.988c-3.553 0-6.86-1.825-8.746-4.837-1.889-3.009-2.087-6.784-.539-9.981 7.021-14.465 20.203-24.753 30.793-33.019 6.449-5.038 14.477-11.302 15.466-14.913zm155.966 15.171c0 35.894-13.982 69.637-39.362 95.021-2.017 2.011-4.654 3.024-7.298 3.024-2.638 0-5.284-1.013-7.295-3.024-4.031-4.031-4.031-10.565 0-14.596 21.48-21.48 33.317-50.046 33.317-80.425 0-62.725-51.026-113.751-113.751-113.751-30.382 0-58.945 11.834-80.428 33.314-4.031 4.031-10.562 4.031-14.593 0s-4.031-10.562 0-14.593c25.383-25.377 59.127-39.359 95.021-39.359 74.1.001 134.389 60.287 134.389 134.389z" fill="#ffffff" fill-opacity="1" data-original-color="#ffffffff" stroke="none" stroke-opacity="1"/></g></g><defs><linearGradient id="SvgjsLinearGradient1083"><stop stop-opacity="1" stop-color="#126c73" offset="0.01"/><stop stop-opacity="1" stop-color="#0ab6bd" offset="1"/></linearGradient></defs></svg>