<svg enable-background="new 0 0 24 24" viewBox="0 0 24 24" xmlns="http://www.w3.org/2000/svg" width="300" height="300" version="1.1" xmlns:xlink="http://www.w3.org/1999/xlink" xmlns:svgjs="http://svgjs.dev/svgjs"><g width="100%" height="100%" transform="matrix(1,0,0,1,0,0)"><path d="m12 24c-6.617 0-12-5.383-12-12s5.383-12 12-12 12 5.383 12 12-5.383 12-12 12z" fill="url(#SvgjsLinearGradient1011)" fill-opacity="1" data-original-color="#2196f3ff" stroke="none" stroke-opacity="1"/><path d="m17.959 13.524-2.269-.563c-.537-.133-1.098.064-1.431.505l-.809 1.071c-1.688-.95-3.095-2.365-4.021-4.043l1.045-.778c.444-.331.645-.892.509-1.427l-.567-2.253c-.154-.61-.702-1.036-1.336-1.036l-2.717.02c-.383.002-.736.158-.994.438-.26.282-.394.666-.365 1.052.479 6.603 5.849 11.971 12.491 12.485.037.004.074.005.11.005.355 0 .7-.133.959-.373.28-.26.435-.613.435-.995v-2.781c.001-.629-.427-1.175-1.04-1.327z" fill="#eceff1" fill-opacity="1" data-original-color="#eceff1ff" stroke="none" stroke-opacity="1"/></g><defs><linearGradient id="SvgjsLinearGradient1011"><stop stop-opacity="1" stop-color="#055256" offset="0"/><stop stop-opacity="1" stop-color="#1f828c" offset="1"/></linearGradient></defs></svg>